<svg width="138" height="24" viewBox="0 0 138 24" fill="none" xmlns="http://www.w3.org/2000/svg">
<path fill-rule="evenodd" clip-rule="evenodd" d="M110.244 13.4402C110.712 8.26186 113.888 4.30124 117.338 4.59402C120.788 4.88655 123.205 9.32165 122.737 14.5C122.269 19.6783 119.093 23.6389 115.644 23.3463C112.194 23.0536 109.776 18.6185 110.244 13.4402ZM116.121 13.5651C115.937 15.5971 117.013 17.3482 118.523 17.4762C120.034 17.6043 121.372 16.0608 121.555 14.0288C121.739 11.9968 120.698 10.2457 119.188 10.1177C117.677 9.98961 116.304 11.5331 116.121 13.5651Z" fill="#6339F5"/>
<path fill-rule="evenodd" clip-rule="evenodd" d="M30.4117 13.9212C30.4117 8.64313 34.1594 4.58128 39.0514 4.58128C41.133 4.58128 43.0616 5.23635 44.5662 6.72127C46.0102 8.14628 46.813 10.0889 47.2186 12.2141L41.8676 13.2353C41.5836 11.7473 41.1264 10.9802 40.7398 10.5987C40.4139 10.2771 39.9413 10.0289 39.0514 10.0289C37.5311 10.0289 35.8593 11.2753 35.8593 13.9212C35.8593 16.635 37.3905 17.8136 38.814 17.8136C39.7745 17.8136 40.307 17.5491 40.6724 17.2016C41.091 16.8036 41.5692 16.0255 41.8754 14.5399L47.2108 15.6399C46.7684 17.786 45.9174 19.7316 44.4262 21.1494C42.882 22.6177 40.9243 23.2612 38.814 23.2612C33.5877 23.2612 30.4117 18.7827 30.4117 13.9212Z" fill="#6339F5"/>
<path fill-rule="evenodd" clip-rule="evenodd" d="M92.5665 13.9709C92.5665 8.69181 96.3124 4.62611 101.206 4.62611C103.288 4.62611 105.217 5.28189 106.722 6.76778C108.165 8.19354 108.968 10.1371 109.373 12.2632L104.022 13.2837C103.738 11.7941 103.281 11.0259 102.894 10.6438C102.568 10.3218 102.096 10.0737 101.206 10.0737C99.6877 10.0737 98.0141 11.3201 98.0141 13.9709C98.0141 16.6894 99.547 17.868 100.969 17.868C101.929 17.868 102.461 17.6035 102.827 17.2557C103.245 16.8572 103.724 16.078 104.03 14.5908L109.366 15.69C108.923 17.837 108.073 19.7836 106.582 21.2022C105.038 22.6715 103.08 23.3156 100.969 23.3156C95.7408 23.3156 92.5665 18.8332 92.5665 13.9709Z" fill="#6339F5"/>
<path fill-rule="evenodd" clip-rule="evenodd" d="M76.8236 7.12587C78.5244 5.44108 80.7981 4.62944 83.1266 4.62944C88.5575 4.62944 91.4914 9.58662 91.3734 14.0463C91.3136 16.3048 90.6731 18.5751 89.2702 20.3445C87.8108 22.1854 85.6434 23.3189 83.0094 23.3189C80.6116 23.3189 78.3289 22.518 76.651 20.7744C74.979 19.037 74.1783 16.6465 74.1783 13.9725C74.1783 11.2122 75.1072 8.8261 76.8236 7.12587ZM80.6573 10.9961C80.1107 11.5376 79.6258 12.4611 79.6258 13.9725C79.6258 15.5701 80.0893 16.491 80.5762 16.997C81.0572 17.4968 81.8281 17.8713 83.0094 17.8713C83.9543 17.8713 84.5592 17.518 85.0015 16.9602C85.5003 16.3309 85.8909 15.2907 85.9277 13.9021C85.9939 11.3995 84.4894 10.077 83.1266 10.077C82.0581 10.077 81.2196 10.4392 80.6573 10.9961Z" fill="#6339F5"/>
<path fill-rule="evenodd" clip-rule="evenodd" d="M50.6433 7.09399C52.306 5.41895 54.5332 4.58128 56.8049 4.58128C59.4067 4.58128 61.7392 5.52599 63.2787 7.69729C64.697 9.69767 65.1571 12.3538 65.1085 15.2217L59.6617 15.1294C59.702 12.7503 59.2765 11.4712 58.8347 10.8481C58.5141 10.3959 58.0121 10.0289 56.8049 10.0289C55.8705 10.0289 55.0716 10.3655 54.5096 10.9317C53.9634 11.482 53.4764 12.417 53.4764 13.9212C53.4764 15.5598 53.9281 16.506 54.3801 17.0089C54.809 17.4861 55.4565 17.8136 56.4312 17.8136C57.4083 17.8136 58.0043 17.5978 58.3861 17.3419C58.759 17.0921 59.1421 16.661 59.4504 15.8444L64.5468 17.7685C63.9161 19.4392 62.9017 20.8736 61.4188 21.8673C59.9447 22.8551 58.2266 23.2612 56.4312 23.2612C54.1054 23.2612 51.9137 22.4143 50.3284 20.6503C48.7662 18.912 48.0288 16.5501 48.0288 13.9212C48.0288 11.158 48.9649 8.78491 50.6433 7.09399Z" fill="#6339F5"/>
<path d="M62.8265 12.5221V15.1275H51.194V12.5221H62.8265Z" fill="#6339F5"/>
<path d="M23.4733 6.98291L29.1583 6.99384L28.4887 22.9997H22.7813L23.4733 6.98291Z" fill="#6339F5"/>
<path d="M129.999 0.99998H135.68L134.753 22.9997H129.073L129.999 0.99998Z" fill="#6339F5"/>
<path d="M67.6193 0.996155H73.3008L72.374 23.0038H66.694L67.6193 0.996155Z" fill="#6339F5"/>
<path d="M127.779 4.97832L127.021 22.9821H121.332L121.708 13.9802L122.085 4.9783L127.779 4.97832Z" fill="#6339F5"/>
<path d="M23.7272 0.99998H29.4025L29.2326 4.99627H23.5476L23.7272 0.99998Z" fill="#6339F5"/>
<path d="M16.183 0.999998H21.7813L20.7897 22.9997H12.2024L7.25272 6.20005L6.49915 22.9997H0.815186L1.73015 0.999998H11.1293L15.4778 15.2993L16.183 0.999998Z" fill="#6339F5"/>
</svg>
