<svg xmlns="http://www.w3.org/2000/svg" width="90.093" height="27.359" viewBox="0 0 90.093 27.359">
  <g id="vagaro-logo" transform="translate(0.002)">
    <g id="Layer_1" data-name="Layer 1" transform="translate(-0.002)">
      <path id="Path_1" data-name="Path 1" d="M4.839,84.1.124,72.355c-.331-.8,0-1.355.882-1.355H2.33a1.285,1.285,0,0,1,1.351.965l3.36,9.156,3.36-9.156A1.3,1.3,0,0,1,11.734,71h1.351c.854,0,1.214.551.882,1.351L9.252,84.1a1.359,1.359,0,0,1-1.382.914H6.218A1.379,1.379,0,0,1,4.839,84.1Z" transform="translate(0.002 -64.184)" fill="#cc4744"/>
      <path id="Path_2" data-name="Path 2" d="M154.54,75.188c0-4.081,2.784-7.308,6.84-7.308a5.5,5.5,0,0,1,4.744,2.4v-.911a1.067,1.067,0,0,1,1.158-1.186h1.214a1.088,1.088,0,0,1,1.186,1.186V81.035a1.067,1.067,0,0,1-1.186,1.158h-1.214a1.046,1.046,0,0,1-1.158-1.158V80.1a5.5,5.5,0,0,1-4.744,2.4C157.325,82.5,154.54,79.269,154.54,75.188Zm11.638,0a4.082,4.082,0,0,0-4.109-4.358c-2.51,0-3.971,1.985-3.971,4.358,0,2.4,1.461,4.358,3.971,4.358A4.082,4.082,0,0,0,166.178,75.188Z" transform="translate(-139.703 -61.363)" fill="#cc4744"/>
      <path id="Path_3" data-name="Path 3" d="M332.714,87.83a1.089,1.089,0,0,1-.414-1.6l.276-.5a1,1,0,0,1,1.572-.414,7.309,7.309,0,0,0,3.723.993c2.537,0,4.3-1.407,4.3-4.274V80.606a5.517,5.517,0,0,1-4.771,2.4c-4.053,0-6.812-3.282-6.812-7.308,0-4,2.757-7.308,6.812-7.308a5.469,5.469,0,0,1,4.744,2.4v-1a1.019,1.019,0,0,1,1.158-1.1h1.186a1.067,1.067,0,0,1,1.158,1.186V82.068c0,5.047-3.53,7.115-7.585,7.115A10.238,10.238,0,0,1,332.714,87.83ZM342.2,75.7a4.1,4.1,0,0,0-4.109-4.385c-2.51,0-3.971,2.016-3.971,4.385,0,2.4,1.461,4.385,3.971,4.385A4.1,4.1,0,0,0,342.2,75.7Z" transform="translate(-298.851 -61.824)" fill="#cc4744"/>
      <path id="Path_4" data-name="Path 4" d="M505.52,75.688c0-4.081,2.784-7.308,6.839-7.308a5.5,5.5,0,0,1,4.744,2.4v-.911a1.067,1.067,0,0,1,1.158-1.186h1.214a1.088,1.088,0,0,1,1.186,1.186V81.534a1.067,1.067,0,0,1-1.186,1.158h-1.214a1.046,1.046,0,0,1-1.158-1.158V80.6a5.5,5.5,0,0,1-4.744,2.4C508.305,83,505.52,79.768,505.52,75.688Zm11.638,0a4.082,4.082,0,0,0-4.109-4.358c-2.51,0-3.971,1.985-3.971,4.358,0,2.4,1.461,4.358,3.971,4.358A4.083,4.083,0,0,0,517.158,75.688Z" transform="translate(-456.986 -61.815)" fill="#cc4744"/>
      <path id="Path_5" data-name="Path 5" d="M696.82,81.534V69.869a1.067,1.067,0,0,1,1.158-1.186h1.158a1.067,1.067,0,0,1,1.158,1.186V71.8a3.9,3.9,0,0,1,3.7-3.42,4.134,4.134,0,0,1,.551.055c.607.055.717.551.717,1.1v1.379c0,.717-.331,1.021-.854.938a3.367,3.367,0,0,0-.717-.083c-1.324,0-3.309.8-3.309,5.376v4.385a1.067,1.067,0,0,1-1.186,1.158h-1.213A1.045,1.045,0,0,1,696.82,81.534Z" transform="translate(-629.92 -61.815)" fill="#cc4744"/>
      <path id="Path_6" data-name="Path 6" d="M780.69,75.688A7.575,7.575,0,1,1,788.247,83,7.378,7.378,0,0,1,780.69,75.688Zm11.693.028a4.14,4.14,0,1,0-4.137,4.3,4.22,4.22,0,0,0,4.137-4.3Z" transform="translate(-705.738 -61.815)" fill="#cc4744"/>
      <rect id="Rectangle_1" data-name="Rectangle 1" width="77.478" height="6.528" transform="translate(6.374)" fill="none"/>
    </g>
  </g>
</svg>
